<svg version="1.0" xmlns="http://www.w3.org/2000/svg"
 width="500" height="500" viewBox="0 0 500 500">

<g transform="matrix(0.064156, 0, 0, -0.064156, -229.536285, 732.412354)"
fill="#000000" stroke="none">
<path d="M7175 11349 c-65 -5 -140 -13 -165 -19 -25 -5 -92 -17 -150 -25 -130
-19 -452 -103 -557 -146 -43 -17 -102 -40 -132 -50 -30 -10 -59 -23 -65 -28
-6 -4 -50 -22 -98 -39 -48 -17 -113 -44 -145 -60 -32 -16 -70 -32 -84 -35 -68
-17 -473 -262 -602 -364 -174 -139 -438 -388 -565 -534 -40 -46 -106 -122
-148 -169 -42 -47 -125 -159 -185 -250 -60 -91 -122 -183 -138 -205 -45 -62
-179 -300 -228 -405 -24 -52 -64 -153 -88 -225 -24 -71 -50 -146 -58 -165 -23
-55 -85 -338 -113 -525 -23 -148 -27 -209 -31 -480 -2 -184 1 -355 7 -420 16
-162 41 -358 46 -366 2 -4 15 -59 29 -121 14 -62 34 -147 45 -188 11 -41 31
-122 45 -180 34 -135 57 -208 112 -350 43 -112 133 -300 157 -330 7 -8 27 -42
46 -75 78 -141 271 -416 369 -523 l57 -64 2909 -12 2910 -13 30 33 c65 71 135
157 207 254 65 89 188 269 188 277 0 3 8 17 19 31 39 56 157 283 234 452 84
185 191 524 236 745 60 296 76 466 75 785 0 263 -11 404 -50 630 -128 759
-503 1490 -1038 2025 -340 340 -669 564 -1171 800 -105 50 -390 152 -530 191
-466 128 -907 173 -1380 143z m149 -748 c3 -5 6 -1045 6 -2312 l0 -2304 -910
-3 -910 -2 50 67 c268 363 332 475 638 1118 304 639 430 954 560 1405 22 74
74 254 117 400 109 378 159 592 224 965 39 225 51 346 51 519 0 78 3 146 7
149 10 10 161 8 167 -2z m213 -799 c35 -48 104 -142 155 -209 51 -67 128 -177
171 -245 44 -68 112 -172 154 -233 203 -299 641 -1085 738 -1325 26 -63 71
-167 101 -231 103 -225 156 -381 227 -679 25 -102 72 -291 106 -420 62 -242
91 -391 91 -471 l0 -46 -112 58 c-167 84 -370 151 -573 187 -238 42 -246 43
-470 32 -297 -14 -476 -49 -610 -119 -27 -14 -53 -27 -57 -29 -5 -2 -8 856 -8
1907 0 1522 3 1911 13 1911 6 0 40 -39 74 -88z m1603 -4066 c0 -3 -74 -117
-165 -255 l-165 -251 -1343 0 -1342 0 -247 247 c-137 137 -248 251 -248 255 0
5 790 8 1755 8 965 0 1755 -2 1755 -4z" fill='#0056D6'/>
<path d="M4855 4685 c27 -26 103 -90 168 -143 l119 -95 1487 6 c817 4 1860 7
2317 7 l831 0 69 53 c38 28 74 57 80 62 6 6 43 37 82 70 39 33 70 60 69 61 -9
7 -1349 15 -3127 19 l-2145 6 50 -46z" fill='#0056D6'/>
<path d="M7081 4180 l-1514 -5 169 -82 c93 -45 194 -92 224 -103 30 -12 78
-31 105 -42 49 -20 66 -20 655 -18 333 1 945 6 1360 9 l755 7 55 24 c30 12 64
26 75 31 116 47 365 171 365 181 0 5 -165 7 -367 6 -203 -2 -1049 -5 -1882 -8z" fill='#0056D6'/>
</g>
</svg>  